<svg version="1.0" xmlns="http://www.w3.org/2000/svg" width="128.000000pt" height="128.000000pt" viewBox="0 0 128.000000 128.000000" preserveAspectRatio="xMidYMid meet">

<g transform="translate(0.000000,128.000000) scale(0.100000,-0.100000)" fill="#fff" stroke="none">
<path d="M9 1184 c-9 -11 -10 -20 -2 -32 8 -14 32 -18 118 -22 l109 -5 66&#10;-300 67 -300 -28 -28 c-35 -35 -43 -59 -35 -102 9 -47 49 -83 101 -91 l43 -6&#10;-34 -30 c-30 -26 -34 -36 -34 -78 0 -42 4 -52 35 -79 48 -42 100 -43 143 -3&#10;54 51 54 113 0 164 l-30 28 226 0 227 0 -36 -31 c-31 -27 -35 -37 -35 -79 0&#10;-42 4 -52 35 -79 48 -42 100 -43 143 -3 53 50 54 114 3 161 l-28 26 31 10 c33&#10;11 46 39 26 59 -8 8 -121 13 -373 16 l-362 5 0 30 0 30 362 5 c222 3 366 9&#10;371 15 6 6 44 132 87 280 53 188 74 275 67 285 -8 13 -76 16 -478 20 l-469 5&#10;-13 60 c-7 32 -18 65 -24 72 -7 9 -46 13 -138 13 -104 0 -130 -3 -141 -16z&#10;m1179 -221 c-3 -10 -32 -111 -64 -225 l-59 -208 -312 0 c-172 0 -313 2 -313 5&#10;0 3 -20 96 -45 207 -25 111 -45 210 -45 220 0 17 21 18 421 18 396 0 421 -1&#10;417 -17z m-680 -745 c30 -30 0 -78 -37 -58 -26 13 -27 45 -3 59 22 13 26 13&#10;40 -1z m530 0 c30 -30 0 -78 -37 -58 -26 13 -27 45 -3 59 22 13 26 13 40 -1z"/>
</g>
</svg>